<?xml version="1.0" standalone="no"?><!DOCTYPE svg PUBLIC "-//W3C//DTD SVG 1.1//EN" "http://www.w3.org/Graphics/SVG/1.1/DTD/svg11.dtd"><svg t="1658926630830" class="icon" viewBox="0 0 1024 1024" version="1.1" xmlns="http://www.w3.org/2000/svg" p-id="12914" xmlns:xlink="http://www.w3.org/1999/xlink" width="32" height="32"><defs><style type="text/css">:not(pre) { -webkit-text-stroke: 0.25px !important; }
* { text-shadow: transparent 0px 0px 0px, rgb(0, 0, 0) 0px 0px 0px !important; }
</style></defs><path d="M851.89 870H171.11A107.1 107.1 0 0 1 64 762.89V260.11A107.1 107.1 0 0 1 171.11 153h680.78A107.1 107.1 0 0 1 959 260.11v502.78A107.1 107.1 0 0 1 851.89 870z m0-75A32.14 32.14 0 0 0 884 762.89V260.11A32.14 32.14 0 0 0 851.89 228H171.11A32.14 32.14 0 0 0 139 260.11v502.78A32.14 32.14 0 0 0 171.11 795z" fill="#ffffff" p-id="12915"></path><path d="M150.487613 199.382617m29.594673 23.03053l355.92527 276.980509q29.594673 23.03053 6.564143 52.625203l0 0q-23.03053 29.594673-52.625203 6.564143l-355.92527-276.980508q-29.594673-23.03053-6.564143-52.625204l0 0q23.03053-29.594673 52.625203-6.564143Z" fill="#ffffff" p-id="12916"></path><path d="M920.225275 258.554769m-29.594673 23.03053l-355.92527 276.980508q-29.594673 23.03053-52.625203-6.564143l0 0q-23.03053-29.594673 6.564143-52.625203l355.92527-276.980509q29.594673-23.03053 52.625203 6.564143l0 0q23.03053 29.594673-6.564143 52.625204Z" fill="#ffffff" p-id="12917"></path></svg>