<?xml version="1.0" standalone="no"?><!DOCTYPE svg PUBLIC "-//W3C//DTD SVG 1.1//EN" "http://www.w3.org/Graphics/SVG/1.1/DTD/svg11.dtd"><svg t="1659700284776" class="icon" viewBox="0 0 1024 1024" version="1.1" xmlns="http://www.w3.org/2000/svg" p-id="5370" xmlns:xlink="http://www.w3.org/1999/xlink" width="32" height="32"><defs><style type="text/css">:not(pre) { -webkit-text-stroke: 0.25px !important; }
* { text-shadow: transparent 0px 0px 0px, rgb(0, 0, 0) 0px 0px 0px !important; }
</style></defs><path d="M512.030838 928.006939c25.595683 0 47.996531-22.400848 47.996531-48.008866s-22.425519-47.996531-47.996531-47.996531-48.008866 22.400848-48.008866 47.996531 22.400848 48.008866 48.008866 48.008866zM752.001156 0H271.998844C201.601465 0 143.99576 57.59337 143.99576 128.003084v767.993832c0 70.397379 57.605705 128.003084 128.003084 128.003084H752.001156c70.397379 0 128.003084-57.605705 128.003084-128.003084v-767.993832C880.00424 57.59337 822.398535 0 752.001156 0z m63.995375 895.996916a64.143397 64.143397 0 0 1-63.995375 63.970704H271.998844a64.143397 64.143397 0 0 1-63.995375-63.995374v-95.968391h607.993062z m0-160.000771H208.003469V223.996145h607.993062z m0-576.05705H208.003469v-31.936011a64.143397 64.143397 0 0 1 63.995375-64.00771H752.001156a64.143397 64.143397 0 0 1 63.995375 64.00771z m0 0" p-id="5371" fill="#000000"></path></svg>