<?xml version="1.0" standalone="no"?><!DOCTYPE svg PUBLIC "-//W3C//DTD SVG 1.1//EN" "http://www.w3.org/Graphics/SVG/1.1/DTD/svg11.dtd"><svg t="1658927945845" class="icon" viewBox="0 0 1024 1024" version="1.1" xmlns="http://www.w3.org/2000/svg" p-id="22012" xmlns:xlink="http://www.w3.org/1999/xlink" width="32" height="32"><defs><style type="text/css">:not(pre) { -webkit-text-stroke: 0.25px !important; }
* { text-shadow: transparent 0px 0px 0px, rgb(0, 0, 0) 0px 0px 0px !important; }
</style></defs><path d="M896 1024 128 1024c-38.4 0-64-25.6-64-64L64 512c0-38.4 25.6-64 64-64l64 0L192 288C192 128 320 0 480 0l64 0C704 0 832 128 832 288L832 448l64 0c38.4 0 64 25.6 64 64l0 448C960 998.4 934.4 1024 896 1024zM768 288C768 166.4 665.6 64 544 64l-64 0C358.4 64 256 166.4 256 288L256 448l512 0L768 288zM896 576c0-38.4-25.6-64-64-64L192 512C153.6 512 128 537.6 128 576l0 320c0 38.4 25.6 64 64 64l640 0c38.4 0 64-25.6 64-64L896 576zM448 640c0-38.4 25.6-64 64-64s64 25.6 64 64-64 192-64 192S448 678.4 448 640z" p-id="22013" fill="#000000"></path></svg>