<?xml version="1.0" standalone="no"?><!DOCTYPE svg PUBLIC "-//W3C//DTD SVG 1.1//EN" "http://www.w3.org/Graphics/SVG/1.1/DTD/svg11.dtd"><svg t="1658925467061" class="icon" viewBox="0 0 1024 1024" version="1.1" xmlns="http://www.w3.org/2000/svg" p-id="5078" xmlns:xlink="http://www.w3.org/1999/xlink" width="32" height="32"><defs><style type="text/css">:not(pre) { -webkit-text-stroke: 0.25px !important; }
* { text-shadow: transparent 0px 0px 0px, rgb(0, 0, 0) 0px 0px 0px !important; }
</style></defs><path d="M512 608a96 96 0 1 1 0-192 96 96 0 0 1 0 192m0-256c-88.224 0-160 71.776-160 160s71.776 160 160 160 160-71.776 160-160-71.776-160-160-160" fill="#000000" p-id="5079"></path><path d="M512 800c-212.064 0-384-256-384-288s171.936-288 384-288 384 256 384 288-171.936 288-384 288m0-640C265.248 160 64 443.008 64 512c0 68.992 201.248 352 448 352s448-283.008 448-352c0-68.992-201.248-352-448-352" fill="#000000" p-id="5080"></path></svg>