<?xml version="1.0" standalone="no"?><!DOCTYPE svg PUBLIC "-//W3C//DTD SVG 1.1//EN" "http://www.w3.org/Graphics/SVG/1.1/DTD/svg11.dtd"><svg t="1658926553433" class="icon" viewBox="0 0 1024 1024" version="1.1" xmlns="http://www.w3.org/2000/svg" p-id="11124" xmlns:xlink="http://www.w3.org/1999/xlink" width="32" height="32"><defs><style type="text/css">:not(pre) { -webkit-text-stroke: 0.25px !important; }
* { text-shadow: transparent 0px 0px 0px, rgb(0, 0, 0) 0px 0px 0px !important; }
</style></defs><path d="M921.144889 70.997333h-235.662222c-19.911111 0-37.603556 13.596444-42.296889 33.479111a134.826667 134.826667 0 0 1-262.4 0 43.377778 43.377778 0 0 0-42.268445-33.479111H102.855111a50.289778 50.289778 0 0 0-50.289778 50.289778v288a50.289778 50.289778 0 0 0 50.289778 50.289778h85.703111v443.420444a50.289778 50.289778 0 0 0 50.289778 50.289778h546.275556a50.289778 50.289778 0 0 0 50.289777-50.289778v-443.448889h85.731556a50.289778 50.289778 0 0 0 50.261333-50.261333V121.287111a50.289778 50.289778 0 0 0-50.261333-50.289778z m-32 306.289778h-136.021333V870.968889H270.848V377.287111H134.855111V153.287111h175.217778a217.258667 217.258667 0 0 0 403.854222 0h175.217778v224z" p-id="11125" fill="#ffffff"></path></svg>